<svg width="66" height="55" viewBox="0 0 66 55" fill="none" xmlns="http://www.w3.org/2000/svg">
<path d="M6.7816 28.945C7.8778 28.3141 8.92488 27.6007 10.0666 27.0888C11.0549 26.6499 12.1402 26.6282 12.9534 27.5906C13.7061 28.4806 13.4455 29.3943 12.9096 30.2577C10.587 34.0005 7.63824 37.2378 4.41003 40.2025C3.04044 41.4598 1.23153 40.9595 1.00719 39.3393C0.618479 36.572 -0.184087 33.8412 0.0382632 31.0163C0.157395 29.4848 0.379002 28.0108 1.16522 26.6619C1.76416 25.6362 2.46561 24.7779 3.79181 24.9575C5.0593 25.1315 5.71365 26.0266 6.12028 27.1725C6.32222 27.7529 6.18312 28.4603 6.77967 28.9384L6.7816 28.945Z" fill="#FFF6E8"/>
<path d="M21.7744 7.75041C21.9483 8.46911 22.3812 8.97836 23.0436 9.25473C24.4523 9.84215 25.908 10.3033 27.4126 10.5843C28.057 10.7058 28.7433 10.6753 29.0983 9.98395C29.466 9.26816 29.037 8.74108 28.5151 8.34684C27.3051 7.43272 26.0619 6.55195 24.7031 5.86456C23.9368 5.47706 23.1331 5.50388 22.4301 6.06647C21.8853 6.50038 21.6884 7.08749 21.7748 7.75275L21.7744 7.75041Z" fill="#FFF6E8"/>
<path d="M22.8652 14.0149C21.7175 14.2728 20.867 14.6792 20.5683 15.7445C20.3545 16.5104 20.5803 17.1775 21.1793 17.6735C21.9829 18.3387 22.9079 18.2977 23.7943 17.8598C24.7301 17.3951 25.6452 16.8761 26.5252 16.3176C27.0259 15.9996 27.2897 15.4748 27.1051 14.8655C26.9097 14.2144 26.3921 13.9046 25.7326 13.9078C24.7263 13.9137 23.7195 13.9805 22.8652 14.0149Z" fill="#FFF6E8"/>
<path d="M30.3954 3.76052C30.7542 4.8887 31.1623 6.30447 31.6627 7.68498C31.8522 8.20567 32.0764 8.96562 32.8636 8.7666C33.6483 8.56806 33.6343 7.83002 33.5678 7.17788C33.4243 5.79524 33.2441 4.41498 33.1102 3.03046C32.9843 1.72476 32.3579 1.02702 31.4031 1.1933C30.4506 1.35911 30.054 2.20488 30.3977 3.76005L30.3954 3.76052Z" fill="#FFF6E8"/>
<path d="M60.7365 47.7735C60.989 46.8689 61.2338 45.988 61.9073 45.2928C63.0562 44.1018 64.2237 44.3052 64.8237 45.8004C65.2775 46.9306 65.3937 48.0837 65.1007 49.2707C64.6968 50.9051 64.1757 52.5037 63.4378 54.0363C62.8866 55.1838 62.371 55.1947 61.2824 54.4291C60.2534 53.7067 59.2246 53.0142 58.4109 52.0654C57.4597 50.9606 56.7971 49.7175 56.5534 48.3015C56.419 47.5209 56.5151 46.7406 57.3446 46.3012C58.1069 45.8976 58.7166 46.3207 59.3106 46.7313C59.7859 47.0603 60.1189 47.5631 60.7365 47.7735ZM59.2224 48.8654C59.3675 50.2625 60.27 51.2011 61.1598 52.1593C61.6448 52.6809 61.91 52.5815 62.1446 51.9964C62.646 50.7519 63.1721 49.5122 63.4221 48.1955C63.5544 47.495 63.5552 46.79 63.1068 46.0785C62.0706 47.0338 61.9947 48.1256 62.2087 49.2862C62.2891 49.7306 62.5058 50.2344 61.9786 50.5274C61.396 50.8507 61.0253 50.3881 60.6425 50.0625C60.1706 49.6618 59.6965 49.2636 59.2224 48.8654Z" fill="#FFF6E8"/>
</svg>
