<svg width="77" height="50" viewBox="0 0 77 50" fill="none" xmlns="http://www.w3.org/2000/svg">
<path d="M69.7816 22.3004C70.8778 21.6696 71.9249 20.9562 73.0666 20.4442C74.0549 20.0054 75.1402 19.9837 75.9534 20.9461C76.7061 21.8361 76.4455 22.7497 75.9096 23.6132C73.587 27.356 70.6382 30.5932 67.41 33.558C66.0404 34.8153 64.2315 34.315 64.0072 32.6948C63.6185 29.9274 62.8159 27.1967 63.0383 24.3718C63.1574 22.8402 63.379 21.3662 64.1652 20.0173C64.7642 18.9916 65.4656 18.1334 66.7918 18.313C68.0593 18.487 68.7136 19.3821 69.1203 20.528C69.3222 21.1084 69.1831 21.8158 69.7797 22.2939L69.7816 22.3004Z" fill="#FFF6E8"/>
<path d="M1.3485 43.1771C2.04379 43.4288 2.70739 43.3489 3.3035 42.9491C4.57086 42.0987 5.75893 41.1394 6.8237 40.0398C7.28071 39.5696 7.63412 38.9805 7.25359 38.3028C6.85964 37.6012 6.18334 37.6679 5.56653 37.8855C4.13639 38.3899 2.71577 38.9404 1.39252 39.6941C0.64645 40.1191 0.225208 40.8041 0.306263 41.7009C0.367387 42.3946 0.748243 42.8829 1.35071 43.178L1.3485 43.1771Z" fill="#FFF6E8"/>
<path d="M7.17435 45.7253C6.75589 46.8247 6.62538 47.7582 7.34879 48.5954C7.86941 49.1964 8.55026 49.3763 9.29451 49.1506C10.2928 48.8477 10.7692 48.0538 10.8933 47.0729C11.0224 46.0361 11.0946 44.9865 11.1147 43.9444C11.1258 43.3514 10.8339 42.8418 10.2239 42.6594C9.5731 42.4629 9.02905 42.7235 8.66778 43.2752C8.11719 44.1176 7.61724 44.994 7.17435 45.7253Z" fill="#FFF6E8"/>
<path d="M2.78002 33.7861C3.91885 34.1096 5.32466 34.5508 6.75203 34.8955C7.2908 35.0249 8.04827 35.2574 8.31679 34.4912C8.58438 33.7272 7.96125 33.3315 7.38075 33.027C6.14861 32.3835 4.89817 31.7719 3.66974 31.1194C2.51151 30.5036 1.58394 30.6408 1.19553 31.5288C0.808056 32.4146 1.2944 33.2121 2.78094 33.7839L2.78002 33.7861Z" fill="#FFF6E8"/>
<path d="M21.0829 5.30644C20.8222 4.40418 20.5675 3.52608 20.7751 2.58062C21.1265 0.963588 22.2267 0.522985 23.5229 1.47964C24.503 2.20267 25.208 3.12256 25.5825 4.28634C26.0979 5.88909 26.4949 7.52301 26.6726 9.21465C26.8068 10.4806 26.3739 10.7609 25.0454 10.6817C23.7903 10.6079 22.5511 10.5595 21.3602 10.1801C19.9703 9.74007 18.7532 9.03076 17.8016 7.95422C17.277 7.36072 16.9487 6.64645 17.4234 5.83662C17.8598 5.0926 18.6009 5.13209 19.3221 5.16921C19.8993 5.19928 20.4468 5.45202 21.0829 5.30644ZM20.3687 7.03115C21.2264 8.14344 22.4875 8.46759 23.7481 8.81512C24.4348 9.00398 24.6083 8.77996 24.5003 8.15891C24.2728 6.83667 24.0687 5.5055 23.5894 4.25386C23.3337 3.58845 22.9639 2.98821 22.2085 2.61862C21.8291 3.97595 22.3383 4.94462 23.1304 5.81956C23.4324 6.15537 23.8815 6.47014 23.5871 6.99645C23.2613 7.57768 22.7028 7.37894 22.206 7.30313C21.5939 7.21028 20.9813 7.12071 20.3687 7.03115Z" fill="#FFF6E8"/>
</svg>
