<svg width="17" height="16" viewBox="0 0 17 16" fill="none" xmlns="http://www.w3.org/2000/svg">
<path d="M3.861 13.4904C3.861 14.3532 4.5568 15.0591 5.40722 15.0591H11.5921C12.4425 15.0591 13.1383 14.3532 13.1383 13.4904V5.64729C13.1383 4.78454 12.4425 4.07866 11.5921 4.07866H5.40722C4.5568 4.07866 3.861 4.78454 3.861 5.64729V13.4904ZM6.18033 5.64729H10.819C11.2442 5.64729 11.5921 6.00023 11.5921 6.4316V12.7061C11.5921 13.1375 11.2442 13.4904 10.819 13.4904H6.18033C5.75512 13.4904 5.40722 13.1375 5.40722 12.7061V6.4316C5.40722 6.00023 5.75512 5.64729 6.18033 5.64729ZM11.2055 1.72572L10.6566 1.16886C10.5175 1.02768 10.3165 0.941406 10.1155 0.941406H6.88386C6.68285 0.941406 6.48184 1.02768 6.34268 1.16886L5.79377 1.72572H3.861C3.43579 1.72572 3.08789 2.07866 3.08789 2.51003C3.08789 2.94141 3.43579 3.29435 3.861 3.29435H13.1383C13.5635 3.29435 13.9114 2.94141 13.9114 2.51003C13.9114 2.07866 13.5635 1.72572 13.1383 1.72572H11.2055Z" fill="#553525"/>
</svg>
