<svg width="91" height="60" viewBox="0 0 91 60" fill="none" xmlns="http://www.w3.org/2000/svg">
<g filter="url(#filter0_d_739_2502)">
<path d="M79.3929 31.9928C80.4891 31.3619 81.5362 30.6485 82.6779 30.1366C83.6662 29.6978 84.7516 29.6761 85.5647 30.6385C86.3175 31.5284 86.0568 32.4421 85.521 33.3055C83.1983 37.0484 80.2496 40.2856 77.0214 43.2504C75.6518 44.5077 73.8429 44.0074 73.6185 42.3871C73.2298 39.6198 72.4272 36.8891 72.6496 34.0642C72.7687 32.5326 72.9903 31.0586 73.7765 29.7097C74.3755 28.684 75.0769 27.8258 76.4031 28.0053C77.6706 28.1794 78.325 29.0745 78.7316 30.2204C78.9335 30.8008 78.7945 31.5081 79.391 31.9862L79.3929 31.9928Z" fill="#FFF6E8"/>
<path d="M6.94587 5.21574C6.97752 5.9545 7.30377 6.53786 7.90026 6.93713C9.16873 7.78587 10.5078 8.51985 11.9296 9.08647C12.5383 9.33034 13.2176 9.43314 13.6996 8.82348C14.1988 8.19231 13.8798 7.59221 13.444 7.10448C12.4336 5.97363 11.3843 4.86907 10.184 3.93187C9.50714 3.4035 8.71344 3.27439 7.91487 3.69039C7.29646 4.01076 6.9897 4.5487 6.94587 5.21813V5.21574Z" fill="#FFF6E8"/>
<path d="M6.80466 11.5729C5.62872 11.604 4.71571 11.8383 4.21661 12.8257C3.85871 13.5358 3.95123 14.2339 4.44303 14.8364C5.10283 15.6445 6.01826 15.7832 6.97265 15.525C7.98061 15.25 8.97882 14.9177 9.95025 14.5399C10.5029 14.3248 10.8633 13.8609 10.8 13.2274C10.7342 12.5508 10.2862 12.1467 9.63862 12.0224C8.65014 11.8335 7.64949 11.7044 6.80466 11.5729Z" fill="#FFF6E8"/>
<path d="M16.1757 2.96837C16.3096 4.14465 16.4362 5.61261 16.6602 7.06384C16.7454 7.61134 16.8185 8.40031 17.6292 8.35727C18.4375 8.31424 18.5666 7.58743 18.6274 6.93474C18.754 5.55045 18.8441 4.16139 18.9804 2.7771C19.1095 1.47171 18.6299 0.666008 17.6609 0.644491C16.6943 0.622974 16.1416 1.37608 16.1781 2.96837H16.1757Z" fill="#FFF6E8"/>
<path d="M16.0046 44.9443C16.0082 44.0052 16.0108 43.0909 16.4759 42.242C17.2679 40.789 18.4475 40.6756 19.4224 41.9582C20.1596 42.9277 20.5775 44.0087 20.6096 45.2308C20.6534 46.9139 20.5748 48.5935 20.2696 50.2668C20.0424 51.5194 19.5481 51.6666 18.2955 51.2171C17.1118 50.7933 15.9363 50.3983 14.9001 49.6992C13.6901 48.8861 12.7216 47.8631 12.1112 46.5624C11.7747 45.8454 11.6605 45.0676 12.3438 44.4239C12.9718 43.8327 13.6719 44.079 14.3535 44.3174C14.899 44.5086 15.3533 44.9051 16.0046 44.9443ZM14.8342 46.3986C15.3445 47.7072 16.4636 48.3729 17.5755 49.0609C18.1814 49.4353 18.4109 49.2691 18.4819 48.6428C18.6355 47.3099 18.814 45.9751 18.706 44.6392C18.6478 43.9287 18.4618 43.2487 17.8408 42.6816C17.0949 43.8774 17.3112 44.9502 17.8252 46.0126C18.0206 46.4198 18.363 46.8481 17.9325 47.2704C17.4564 47.7365 16.9763 47.3887 16.5209 47.1763C15.9596 46.915 15.3969 46.6568 14.8342 46.3986Z" fill="#FFF6E8"/>
</g>
<defs>
<filter id="filter0_d_739_2502" x="0" y="0.644043" width="90.0327" height="59.0005" filterUnits="userSpaceOnUse" color-interpolation-filters="sRGB">
<feFlood flood-opacity="0" result="BackgroundImageFix"/>
<feColorMatrix in="SourceAlpha" type="matrix" values="0 0 0 0 0 0 0 0 0 0 0 0 0 0 0 0 0 0 127 0" result="hardAlpha"/>
<feOffset dy="4"/>
<feGaussianBlur stdDeviation="2"/>
<feComposite in2="hardAlpha" operator="out"/>
<feColorMatrix type="matrix" values="0 0 0 0 0 0 0 0 0 0 0 0 0 0 0 0 0 0 0.25 0"/>
<feBlend mode="normal" in2="BackgroundImageFix" result="effect1_dropShadow_739_2502"/>
<feBlend mode="normal" in="SourceGraphic" in2="effect1_dropShadow_739_2502" result="shape"/>
</filter>
</defs>
</svg>
