<svg width="20" height="20" viewBox="0 0 20 20" fill="none" xmlns="http://www.w3.org/2000/svg">
<path d="M2.42834 19.4492C1.91188 19.4492 1.4696 19.2654 1.1015 18.8977C0.734029 18.5307 0.550293 18.0893 0.550293 17.5735V4.44313C0.550293 3.92729 0.734029 3.48555 1.1015 3.1179C1.4696 2.75088 1.91188 2.56737 2.42834 2.56737H10.8091L8.93109 4.44313H2.42834V17.5735H15.5747V11.0552L17.4527 9.17942V17.5735C17.4527 18.0893 17.269 18.5307 16.9015 18.8977C16.5334 19.2654 16.0911 19.4492 15.5747 19.4492H2.42834ZM12.9219 3.10665L14.26 4.41968L8.06249 10.6097V11.9462H9.37712L15.5982 5.73271L16.9363 7.04575L10.7152 13.2592C10.5431 13.4311 10.3437 13.5681 10.1171 13.67C9.88983 13.7713 9.651 13.8219 9.4006 13.8219H7.12346C6.85741 13.8219 6.63455 13.7322 6.45488 13.5528C6.27459 13.3727 6.18444 13.1498 6.18444 12.8841V10.6097C6.18444 10.3596 6.23139 10.1211 6.32529 9.89409C6.4192 9.66775 6.55222 9.4686 6.72438 9.29666L12.9219 3.10665ZM16.9363 7.04575L12.9219 3.10665L15.2695 0.761947C15.6451 0.386795 16.0952 0.199219 16.6198 0.199219C17.1438 0.199219 17.5858 0.386795 17.9457 0.761947L19.2604 2.09843C19.6203 2.45795 19.8003 2.89563 19.8003 3.41146C19.8003 3.92729 19.6203 4.36497 19.2604 4.72449L16.9363 7.04575Z" fill="#553525"/>
</svg>
