<svg width="14" height="12" viewBox="0 0 14 12" fill="none" xmlns="http://www.w3.org/2000/svg">
<path d="M12.6 0.441406H1.4C0.63 0.441406 0.00699999 1.06677 0.00699999 1.83111L0 10.1693C0 10.9337 0.63 11.5591 1.4 11.5591H12.6C13.37 11.5591 14 10.9337 14 10.1693V1.83111C14 1.06677 13.37 0.441406 12.6 0.441406ZM12.32 3.39453L7.371 6.46578C7.147 6.60475 6.853 6.60475 6.629 6.46578L1.68 3.39453C1.505 3.28335 1.4 3.09574 1.4 2.89424C1.4 2.42869 1.911 2.15074 2.31 2.39394L7 5.30538L11.69 2.39394C12.089 2.15074 12.6 2.42869 12.6 2.89424C12.6 3.09574 12.495 3.28335 12.32 3.39453Z" fill="#FF9944"/>
</svg>
