<svg width="14" height="14" viewBox="0 0 14 14" fill="none" xmlns="http://www.w3.org/2000/svg">
<path d="M12.6 3.5H9.1V1.4C9.1 0.63 8.47 0 7.7 0H6.3C5.53 0 4.9 0.63 4.9 1.4V3.5H1.4C0.63 3.5 0 4.13 0 4.9V12.6C0 13.37 0.63 14 1.4 14H12.6C13.37 14 14 13.37 14 12.6V4.9C14 4.13 13.37 3.5 12.6 3.5ZM4.9 7C5.481 7 5.95 7.469 5.95 8.05C5.95 8.631 5.481 9.1 4.9 9.1C4.319 9.1 3.85 8.631 3.85 8.05C3.85 7.469 4.319 7 4.9 7ZM7 11.2H2.8V10.899C2.8 10.479 3.052 10.094 3.444 9.926C3.892 9.73 4.382 9.625 4.9 9.625C5.418 9.625 5.908 9.73 6.356 9.926C6.741 10.094 7 10.472 7 10.899V11.2ZM7.7 4.9H6.3V1.4H7.7V4.9ZM10.675 10.15H8.925C8.638 10.15 8.4 9.912 8.4 9.625C8.4 9.338 8.638 9.1 8.925 9.1H10.675C10.962 9.1 11.2 9.338 11.2 9.625C11.2 9.912 10.962 10.15 10.675 10.15ZM10.675 8.05H8.925C8.638 8.05 8.4 7.812 8.4 7.525C8.4 7.238 8.638 7 8.925 7H10.675C10.962 7 11.2 7.238 11.2 7.525C11.2 7.812 10.962 8.05 10.675 8.05Z" fill="#FF9944"/>
</svg>
