<svg width="46" height="54" viewBox="0 0 46 54" fill="none" xmlns="http://www.w3.org/2000/svg">
<path d="M15.3265 30.0738H31.1353C31.4515 30.0738 31.6886 29.9288 31.8467 29.639C32.0048 29.3492 31.9784 29.0725 31.7676 28.8091L27.4202 22.9993C27.2621 22.7885 27.0513 22.6831 26.7879 22.6831C26.5244 22.6831 26.3136 22.7885 26.1555 22.9993L22.0452 28.4929L19.1206 24.5802C18.9625 24.3694 18.7517 24.264 18.4882 24.264C18.2247 24.264 18.014 24.3694 17.8559 24.5802L14.6941 28.8091C14.4833 29.0725 14.457 29.3492 14.6151 29.639C14.7732 29.9288 15.0103 30.0738 15.3265 30.0738ZM12.1647 36.3973C11.2952 36.3973 10.5506 36.088 9.93091 35.4693C9.31226 34.8496 9.00293 34.105 9.00293 33.2355V11.1032C9.00293 10.2337 9.31226 9.48909 9.93091 8.86938C10.5506 8.25073 11.2952 7.94141 12.1647 7.94141H34.297C35.1665 7.94141 35.9111 8.25073 36.5308 8.86938C37.1495 9.48909 37.4588 10.2337 37.4588 11.1032V33.2355C37.4588 34.105 37.1495 34.8496 36.5308 35.4693C35.9111 36.088 35.1665 36.3973 34.297 36.3973H12.1647ZM12.1647 33.2355H34.297V11.1032H12.1647V33.2355Z" fill="#BCAFA9"/>
<path d="M33.4003 31.7656C27.7505 31.7656 23.165 36.351 23.165 42.0009C23.165 47.6508 27.7505 52.2362 33.4003 52.2362C39.0502 52.2362 43.6356 47.6508 43.6356 42.0009C43.6356 36.351 39.0502 31.7656 33.4003 31.7656ZM37.4945 43.0244H34.4239V46.095C34.4239 46.658 33.9633 47.1186 33.4003 47.1186C32.8374 47.1186 32.3768 46.658 32.3768 46.095V43.0244H29.3062C28.7433 43.0244 28.2827 42.5639 28.2827 42.0009C28.2827 41.438 28.7433 40.9774 29.3062 40.9774H32.3768V37.9068C32.3768 37.3439 32.8374 36.8833 33.4003 36.8833C33.9633 36.8833 34.4239 37.3439 34.4239 37.9068V40.9774H37.4945C38.0574 40.9774 38.518 41.438 38.518 42.0009C38.518 42.5639 38.0574 43.0244 37.4945 43.0244Z" fill="#BCAFA9"/>
</svg>
