<svg width="120" height="122" viewBox="0 0 120 122" fill="none" xmlns="http://www.w3.org/2000/svg">
<path d="M97.1284 44.8734C96.1552 44.3911 95.2139 43.9645 94.3125 43.5938C95.3694 44.2037 96.3386 44.6263 97.1284 44.8734Z" fill="#B1431F"/>
<path d="M118.567 70.1965C118.838 67.5294 118.926 64.0451 118.332 60.0426C117.55 54.8082 115.891 50.6701 114.503 47.8715C114.798 46.0376 115.679 39.1448 111.467 32.3835C105.987 23.5811 96.3909 22.2695 95.0906 22.114C94.273 20.8303 92.5659 18.562 89.6144 17.0869C89.2116 16.8836 81.6734 13.2558 77.1903 17.5613C74.3824 20.2563 74.5539 24.3545 74.6178 25.3073C78.327 29.3178 82.0323 33.3284 85.7416 37.3389L86.9382 41.9354C90.1689 42.4218 96.0758 43.7693 101.971 48.1027C110.901 54.6646 113.888 63.7182 114.758 66.7959C116.026 67.9281 117.291 69.0603 118.559 70.1885L118.567 70.1965Z" fill="#45E4FF"/>
<path d="M83.3444 14.8265C86.599 14.7348 88.9283 16.4769 90.759 17.8483C92.9168 19.4629 93.3316 21.5399 94.1054 22.7558C94.8033 23.9797 94.903 25.4029 94.7395 26.6467C94.2769 26.7743 92.5618 27.2806 91.4012 29.3576C90.2565 31.4068 91.3932 34.1256 92.8649 36.1987C92.857 36.3581 92.5139 37.7694 91.3054 38.467C90.0371 39.1966 87.64 39.0929 86.248 36.992C82.3752 33.1011 78.4984 29.2062 74.6256 25.3152C74.4621 24.4262 74.135 21.9465 75.4712 19.4469C77.8124 15.0697 83.0293 14.8344 83.3444 14.8265Z" fill="#FFF1D7"/>
<path d="M83.7867 28.3769C83.7867 28.3769 83.6551 25.2195 83.4716 23.0229C83.3878 22.0303 82.8534 21.1093 81.9879 20.631C80.7315 19.9333 79.196 20.021 78.2028 20.8502C77.9914 21.0256 77.808 21.2369 77.6524 21.4681C76.6473 22.987 77.3174 25.068 78.9487 25.8574C81.1184 26.9059 83.7867 28.3769 83.7867 28.3769Z" fill="#F49749"/>
<path d="M104.607 26.9935C103.215 26.6148 99.6652 25.6142 96.4664 26.6626C95.2659 27.0573 94.2847 27.5875 93.5229 28.0898C92.9605 28.5324 92.3264 29.1901 91.9116 30.127C90.4518 33.408 93.1241 36.9042 93.2437 37.0517C94.544 38.6783 96.3587 40.5799 98.8116 42.3061C104.719 46.4761 110.813 47.1897 113.856 47.3172C114.195 45.4236 114.411 42.7167 113.717 39.6311C111.918 31.626 106.17 27.9304 104.611 26.9895L104.607 26.9935Z" fill="#FFF1D7"/>
<g opacity="0.3" style="mix-blend-mode:multiply">
<path d="M86.4718 35.7202C86.5715 36.5415 87.3971 40.536 87.4968 41.3573C88.8569 41.6921 91.3417 42.3619 94.3091 43.5938C91.7804 42.1307 88.7532 39.5832 86.4678 35.7202H86.4718Z" fill="#8C8C8C"/>
</g>
<g opacity="0.3" style="mix-blend-mode:multiply">
<path d="M117.765 57.0287C116.748 52.8627 115.172 49.5897 113.852 47.3213C114.047 45.041 114.036 41.5288 112.58 37.7056C111.291 34.321 109.417 32.1244 109.353 32.1642C109.281 32.2081 111.878 34.907 111.287 37.598C110.725 40.1653 107.474 41.7401 105.157 42.1626C100.299 43.0437 96.3625 39.5394 95.86 39.0371C97.3796 41.0424 98.5203 42.4297 98.975 43.4742C96.8372 42.3939 94.2805 40.6118 92.3022 37.6777C90.9541 35.6804 90.2601 33.719 89.8812 32.2161C89.7337 33.8147 89.9012 35.1502 90.1644 36.2106C91.2174 40.4763 94.5278 43.2709 97.4474 44.9692C97.3437 44.9413 97.236 44.9094 97.1243 44.8775C102.533 47.5685 108.775 52.0534 112.791 59.4366C114.383 62.3588 115.356 65.2451 115.95 67.8682L118.638 69.3393C118.917 66.441 118.993 62.0877 117.757 57.0327L117.765 57.0287Z" fill="#8C8C8C"/>
</g>
<g opacity="0.3" style="mix-blend-mode:multiply">
<path d="M84.497 23.8163C84.7762 24.9485 85.1591 26.7504 85.195 28.4328C85.203 28.8155 85.195 29.3856 84.8201 29.7364C84.4332 30.0952 83.8589 30.1829 83.3683 29.9556C81.5057 29.266 79.6391 28.5803 77.7764 27.8906C77.4294 27.5916 76.2608 26.4993 76.0016 24.6854C75.6227 22.0263 77.5411 20.1845 77.7206 20.0131C77.4773 20.619 77.0545 21.9147 77.2898 23.5452C77.4494 24.6455 77.8522 25.4827 78.1514 25.989C80.0698 26.8381 81.9883 27.6913 83.9067 28.5404C84.1022 26.9657 84.3016 25.391 84.497 23.8123V23.8163Z" fill="#B1431F"/>
</g>
<path d="M76.0378 48.4893C77.6691 48.3338 78.5785 45.6668 79.5876 42.7048C80.2856 40.6596 81.0633 37.7454 81.3625 34.0658C80.5727 32.6784 79.5876 31.1316 78.3591 29.529C77.0828 27.8586 75.7985 26.4633 74.6259 25.3112C75.0208 23.5531 75.4196 20.8901 75.1285 17.6808C74.9729 16.0025 74.7256 13.2756 73.2778 10.4093C70.8369 5.5815 66.5373 3.40082 65.0895 2.69121C57.7187 -0.916667 50.4597 1.63077 48.9122 2.21282C44.2815 2.95432 37.1461 4.72039 29.6558 9.37276C25.057 12.2312 21.591 15.3885 19.1102 18.0396C15.4129 21.6874 9.47404 28.4885 5.42174 38.7301C1.7643 47.9671 1.16204 56.1635 1.174 61.2026C1.19793 66.1659 1.82013 72.8873 4.36479 80.3423C9.54184 95.5233 19.5529 104.613 24.4947 108.524C26.6604 110.206 29.1173 111.868 31.8893 113.399C44.5009 120.38 57.0646 121.057 64.9219 120.683C62.1579 120.308 56.3826 119.124 50.8904 114.643C49.1555 113.228 42.8537 107.914 41.1825 98.565C40.1814 92.9559 41.2822 88.3394 42.04 85.9355C42.3631 84.5442 43.5476 80.2346 47.596 77.133C49.8933 75.375 52.2066 74.6972 53.6146 74.4102C54.6277 75.1318 55.6447 75.8494 56.6578 76.5709C59.019 73.5172 61.7431 70.3957 64.886 67.318C65.5322 66.6842 66.1823 66.0702 66.8284 65.4762C65.1214 64.9939 62.9317 64.5354 60.3631 64.3919C58.0976 64.2643 56.6538 63.4032 55.9917 64.9022C53.826 69.8256 46.7344 73.4096 42.0759 73.266C37.4652 73.1225 34.2984 68.8011 33.5086 67.916C32.6352 66.6722 31.4506 64.6829 30.6848 61.9999C29.919 59.3289 29.8671 57.0167 29.9509 55.4978C29.217 55.1828 27.6097 54.3695 26.3972 52.5756C25.6394 51.4553 25.3203 50.371 25.1727 49.6574C25.8468 48.9916 27.1231 47.8953 29.0375 47.1737C30.956 46.4522 32.6312 46.4362 33.5725 46.5C34.8129 45.3399 36.0573 44.1798 37.2977 43.0197C37.1063 42.6848 35.8419 40.3925 36.835 38.1441C37.1222 37.4943 38.3028 35.5488 38.6618 35.2099C40.2691 35.3415 41.8406 35.792 44.0462 36.5135C45.4821 36.984 46.3795 38.8656 47.4284 39.4078C48.8125 39.1447 50.1965 38.8816 51.5805 38.6185C52.0032 39.7826 53.2038 42.617 56.1552 44.8894C58.9831 47.0661 61.9027 47.5525 63.3704 47.68C67.9971 48.0747 71.3793 45.9857 72.4203 45.2841C72.7553 45.906 74.3068 48.6607 76.0339 48.4973L76.0378 48.4893Z" fill="#F49749"/>
<mask id="mask0_11_828" style="mask-type:luminance" maskUnits="userSpaceOnUse" x="1" y="0" width="81" height="121">
<path d="M76.0378 48.4893C77.6691 48.3338 78.5785 45.6668 79.5876 42.7048C80.2856 40.6596 81.0633 37.7454 81.3625 34.0658C80.5727 32.6784 79.5876 31.1316 78.3591 29.529C77.0828 27.8586 75.7985 26.4633 74.6259 25.3112C75.0208 23.5531 75.4196 20.8901 75.1285 17.6808C74.9729 16.0025 74.7256 13.2756 73.2778 10.4093C70.8369 5.5815 66.5373 3.40082 65.0895 2.69121C57.7187 -0.916667 50.4597 1.63077 48.9122 2.21282C44.2815 2.95432 37.1461 4.72039 29.6558 9.37276C25.057 12.2312 21.591 15.3885 19.1102 18.0396C15.4129 21.6874 9.47404 28.4885 5.42174 38.7301C1.7643 47.9671 1.16204 56.1635 1.174 61.2026C1.19793 66.1659 1.82013 72.8873 4.36479 80.3423C9.54184 95.5233 19.5529 104.613 24.4947 108.524C26.6604 110.206 29.1173 111.868 31.8893 113.399C44.5009 120.38 57.0646 121.057 64.9219 120.683C62.1579 120.308 56.3826 119.124 50.8904 114.643C49.1555 113.228 42.8537 107.914 41.1825 98.565C40.1814 92.9559 41.2822 88.3394 42.04 85.9355C42.3631 84.5442 43.5476 80.2346 47.596 77.133C49.8933 75.375 52.2066 74.6972 53.6146 74.4102C54.6277 75.1318 55.6447 75.8494 56.6578 76.5709C59.019 73.5172 61.7431 70.3957 64.886 67.318C65.5322 66.6842 66.1823 66.0702 66.8284 65.4762C65.1214 64.9939 62.9317 64.5354 60.3631 64.3919C58.0976 64.2643 56.6538 63.4032 55.9917 64.9022C53.826 69.8256 46.7344 73.4096 42.0759 73.266C37.4652 73.1225 34.2984 68.8011 33.5086 67.916C32.6352 66.6722 31.4506 64.6829 30.6848 61.9999C29.919 59.3289 29.8671 57.0167 29.9509 55.4978C29.217 55.1828 27.6097 54.3695 26.3972 52.5756C25.6394 51.4553 25.3203 50.371 25.1727 49.6574C25.8468 48.9916 27.1231 47.8953 29.0375 47.1737C30.956 46.4522 32.6312 46.4362 33.5725 46.5C34.8129 45.3399 36.0573 44.1798 37.2977 43.0197C37.1063 42.6848 35.8419 40.3925 36.835 38.1441C37.1222 37.4943 38.3028 35.5488 38.6618 35.2099C40.2691 35.3415 41.8406 35.792 44.0462 36.5135C45.4821 36.984 46.3795 38.8656 47.4284 39.4078C48.8125 39.1447 50.1965 38.8816 51.5805 38.6185C52.0032 39.7826 53.2038 42.617 56.1552 44.8894C58.9831 47.0661 61.9027 47.5525 63.3704 47.68C67.9971 48.0747 71.3793 45.9857 72.4203 45.2841C72.7553 45.906 74.3068 48.6607 76.0339 48.4973L76.0378 48.4893Z" fill="white"/>
</mask>
<g mask="url(#mask0_11_828)">
<path d="M58.8359 5.8925C57.3522 6.47853 55.8645 7.06854 54.3808 7.65457C52.2031 10.7163 51.2857 13.3993 50.851 15.2371C50.3923 17.1586 50.5957 17.5852 49.7063 23.9957C49.2356 27.4042 48.8687 29.5211 47.1616 30.733C46.8026 30.9882 46.0528 31.4386 45.0677 31.5343C44.1264 31.626 42.4991 31.4426 38.7379 27.5677C35.8702 24.6136 33.6606 22.3412 32.2886 18.3666C31.5387 16.1979 31.3034 14.2883 31.2236 12.9807C32.2766 11.406 33.6566 9.71565 35.4714 8.13695C42.7543 1.80224 51.7803 1.81021 54.9551 1.96569C55.673 2.33645 56.722 2.99822 57.6792 4.13042C58.2057 4.75631 58.5727 5.37025 58.8319 5.88851L58.8359 5.8925Z" fill="#B1431F"/>
<path opacity="0.5" d="M70.5498 45.4197C71.1481 45.1725 71.7862 44.8217 72.4044 44.3314C75.3559 41.9952 75.683 38.1721 75.7388 37.1315C77.2704 36.8166 78.806 36.4977 80.3375 36.1827C80.4253 36.5814 80.4931 37.0159 80.525 37.4864C80.6726 39.7189 79.9148 41.5328 79.3404 42.5932C79.3404 42.8125 79.2846 46.3884 76.8396 47.6721C76.5086 47.8436 75.4556 48.4017 74.299 47.9871C73.2261 47.6004 72.4523 46.516 72.2688 45.1725C71.6945 45.2523 71.1202 45.336 70.5498 45.4157V45.4197Z" fill="#B1431F"/>
<path opacity="0.5" d="M75.5068 27.3523C75.8937 27.3922 76.2806 27.4321 76.6675 27.4759C76.2487 27.1052 75.2476 26.1165 74.7929 24.478C74.394 23.0428 74.6174 21.8389 74.753 21.2887C75.0481 19.8296 75.6384 15.8908 73.7718 11.4976C72.1924 7.77811 69.6557 5.6373 68.4432 4.73633C69.7873 6.75355 74.3382 14.1128 72.1844 22.405C71.8374 23.7405 71.7736 24.2826 71.2311 25.3471C66.5686 24.3584 63.6849 24.8487 63.4456 25.5105C63.1664 26.272 65.9903 28.3091 71.5383 31.2433C74.5137 31.3708 77.2976 31.307 80.2691 31.4306C78.6776 30.0712 77.0902 28.7118 75.4988 27.3523H75.5068Z" fill="#B1431F"/>
<path opacity="0.5" d="M50.8188 37.8691C51.2735 37.0319 50.396 36.115 50.1408 33.9303C49.9852 32.6028 50.1607 31.6938 50.3043 30.6693C50.5556 28.8793 50.8069 25.989 50.8188 21.1612C50.0331 24.187 49.2434 27.2089 48.4576 30.2347C48.1705 30.5536 47.2332 31.5184 45.7415 31.7018C44.1261 31.9011 42.8538 30.8128 41.3581 29.5211C37.0266 25.7857 34.8649 23.9199 34.1629 22.8994C31.8217 19.4828 30.9881 16.1102 30.661 14.0172C30.4536 15.4245 30.3898 16.9713 30.5812 18.6217C31.3032 24.8648 35.2916 29.3337 38.2272 31.8533C39.3958 32.8539 40.6681 33.719 41.9923 34.5004C43.3165 35.2818 44.0025 35.8837 43.8948 36.2266C43.823 36.4538 43.4162 36.5774 42.6743 36.5933C44.1939 37.3149 45.7136 38.0325 47.2372 38.7541C49.7659 38.9175 50.5516 38.3674 50.8188 37.873V37.8691Z" fill="#B1431F"/>
<path opacity="0.5" d="M35.9222 69.8695C34.7017 68.239 32.0414 65.2212 31.132 62.6697C30.5976 61.1708 30.2466 59.7595 30.0113 58.4918C30.095 57.4194 30.1748 56.347 30.2585 55.2786C29.3691 54.8281 28.1407 54.0786 26.9122 52.8747C26.2741 52.2528 25.7635 51.6229 25.3447 51.0408C24.8063 50.0043 24.4952 49.2508 24.6268 49.6336C24.6986 49.8409 24.7624 50.0521 24.8302 50.2634C24.6707 50.0003 24.5311 49.7571 24.4114 49.5339C24.2479 50.2076 24.196 50.8256 24.208 51.3677C24.224 52.0415 24.3396 52.6753 24.5271 53.2773C28.1207 69.2835 23.7055 83.7629 23.9408 83.8625C24.1602 83.9542 30.6414 73.613 35.7985 70.4915C36.0139 70.3599 36.0738 70.0769 35.9222 69.8735V69.8695Z" fill="#B1431F"/>
<path opacity="0.5" d="M36.9986 34.6918C36.2846 35.3575 35.4391 36.3183 34.7969 37.6179C33.0779 41.0903 34.071 44.4151 34.4379 45.4676C35.6225 44.9892 36.8111 44.5108 37.9957 44.0324C37.4772 42.0869 37.0624 39.7946 36.9746 37.2153C36.9467 36.3343 36.9547 35.4931 36.9946 34.6918H36.9986Z" fill="#B1431F"/>
<path opacity="0.5" d="M40.1572 73.8721C41.2301 74.1511 42.8694 74.4581 44.8636 74.3823C46.2556 74.3305 50.9979 73.9637 55.142 70.2682C57.4872 68.1792 58.7356 65.8271 59.3857 64.2643C58.2689 64.2324 57.1522 64.1966 56.0354 64.1647C55.138 66.6563 53.8497 68.227 53.0281 69.0802C50.0207 72.1977 46.2117 72.9791 44.0061 73.4335C42.4027 73.7644 41.0546 73.8521 40.1572 73.876V73.8721Z" fill="#B1431F"/>
<g opacity="0.5" style="mix-blend-mode:multiply">
<path d="M31.8293 13.1242C34.8765 18.1434 37.9955 21.4363 40.2171 23.4734C41.7886 24.9126 42.7139 25.5385 43.6871 25.3471C45.7531 24.9405 46.0842 21.217 48.6886 15.8949C50.0009 13.2119 51.3888 11.1509 52.3979 9.78345C50.6111 14.8504 50.1205 18.7653 50.0288 21.516C49.9729 23.1824 50.0088 26.1325 48.1861 28.963C47.0294 30.753 46.5069 31.1556 46.1839 31.2593C45.1708 31.5862 44.0221 31.1078 39.571 27.3046C36.6115 24.781 35.1358 23.5173 34.1386 22.1778C32.7786 20.344 30.8721 17.6929 31.3826 14.6192C31.4903 13.9813 31.6738 13.4711 31.8253 13.1242H31.8293Z" fill="#853235"/>
</g>
<path d="M81.0475 34.1336C80.8321 35.3455 77.9803 38.1401 75.1685 37.6298C72.3566 37.1196 70.6535 33.4918 70.8689 32.2798C71.0842 31.0679 73.5372 30.5018 76.349 31.0121C79.1609 31.5224 81.2629 32.9217 81.0475 34.1336Z" fill="#553525"/>
<path d="M75.5384 33.2365C75.6055 32.8951 74.9765 32.4843 74.1335 32.3188C73.2905 32.1534 72.5528 32.2959 72.4857 32.6373C72.4186 32.9786 73.0476 33.3895 73.8906 33.555C74.7336 33.7204 75.4713 33.5778 75.5384 33.2365Z" fill="#FDE3A7"/>
<g opacity="0.6" style="mix-blend-mode:screen">
<path d="M60.7419 1.87002C55.1341 0.43484 50.5593 2.03745 43.7989 4.52111C38.3825 6.51042 31.2272 9.13361 23.4855 15.6039C19.84 18.6496 14.2163 24.0913 9.58165 32.4154C3.12031 44.0323 2.28273 54.6287 2.11521 57.6067C1.50098 68.4941 4.20916 76.6467 6.00797 81.8931C6.99313 84.7714 8.16574 88.1002 9.9805 91.6164C6.01196 83.5475 3.75448 74.2867 3.75448 64.4437C3.75448 49.9883 8.62442 36.7966 16.6333 26.7743C18.2566 24.4541 20.1033 22.2495 22.7835 20.1247C23.1624 19.8257 23.5413 19.5386 23.9163 19.2715C26.4091 17.1626 29.0813 15.3009 31.9052 13.7222C32.1924 13.5627 32.3718 13.5149 32.4875 13.5348C35.076 11.3422 39.0845 9.07779 43.8108 7.3197C49.5941 5.17092 55.0424 4.30184 58.5044 4.7603C59.9961 4.32576 62.453 3.79953 65.6597 4.80416C67.3309 5.3264 68.6232 6.0998 69.5325 6.76158C67.7656 5.13903 64.8221 2.91849 60.7419 1.874V1.87002Z" fill="#FDE3A7"/>
</g>
<g opacity="0.6" style="mix-blend-mode:screen">
<path d="M24.1035 88.2836C24.8852 86.1547 26.4208 82.814 29.4042 79.5489C33.1414 75.4587 37.2695 73.5491 39.523 72.6999C38.3264 71.9465 37.1339 71.189 35.9373 70.4355C35.0997 70.882 33.9311 71.5677 32.6269 72.5285C30.509 74.0913 27.2464 76.4992 25.4157 80.7011C24.8094 82.0924 23.916 84.6956 24.1035 88.2836Z" fill="#FDE3A7"/>
</g>
<path opacity="0.5" d="M36.7038 70.2004C39.3282 68.4622 59.5179 62.2551 65.8716 74.8408C70.0396 83.0891 25.0016 117.541 3.84668 78.6918C15.86 117.653 57.0172 127.954 78.6666 117.374C118.898 104.449 88.243 45.2881 36.7038 70.2044V70.2004Z" fill="#B1431F"/>
</g>
<path d="M51.9906 89.7985C52.198 90.1772 53.0436 91.6164 54.7945 92.1865C57.064 92.928 58.9745 91.5925 59.3334 91.3453C61.6308 89.7387 61.8103 87.0079 61.8262 86.6571C62.3088 85.7401 62.9071 84.7554 63.2182 84.8591C63.7088 85.0146 63.1863 87.7175 63.0188 89.4158C62.7436 92.2024 63.0347 96.1691 65.5555 101.32C65.0011 100.698 64.0518 99.8248 62.6518 99.3624C58.771 98.0827 55.2652 101.216 55.0578 101.407C54.2601 100.475 52.8402 98.561 52.1422 95.7306C51.508 93.1512 51.7633 90.9825 51.9906 89.7945V89.7985Z" fill="#FF9944"/>
<path opacity="0.5" d="M51.9906 89.7985C52.198 90.1772 53.0436 91.6164 54.7945 92.1865C57.064 92.928 58.9745 91.5925 59.3334 91.3453C61.6308 89.7387 61.8103 87.0079 61.8262 86.6571C62.3088 85.7401 62.9071 84.7554 63.2182 84.8591C63.7088 85.0146 63.1863 87.7175 63.0188 89.4158C62.7436 92.2024 63.0347 96.1691 65.5555 101.32C65.0011 100.698 64.0518 99.8248 62.6518 99.3624C58.771 98.0827 55.2652 101.216 55.0578 101.407C54.2601 100.475 52.8402 98.561 52.1422 95.7306C51.508 93.1512 51.7633 90.9825 51.9906 89.7945V89.7985Z" fill="#B1431F"/>
<path d="M75.1237 18.8768C75.8576 19.1081 77.3533 16.9792 77.9475 14.966C78.3743 13.5188 78.2985 12.2431 78.1908 11.4618C76.416 9.99469 74.6411 8.52762 72.8662 7.06055C73.277 7.97747 73.8434 9.40467 74.2383 11.2146C75.2154 15.6915 74.31 18.6177 75.1237 18.8729V18.8768Z" fill="#B1431F"/>
<g opacity="0.5" style="mix-blend-mode:multiply">
<path d="M73.1582 7.75415C73.6767 8.58735 74.2112 9.59596 74.6659 10.784C75.6829 13.447 75.8704 15.8589 75.8504 17.5213C76.3051 16.8795 76.9313 15.835 77.3022 14.4237C77.5735 13.3832 77.9085 12.1155 77.4658 10.8677C76.6122 8.43985 73.4573 7.80996 73.1582 7.75814V7.75415Z" fill="#853235"/>
</g>
<g opacity="0.6" style="mix-blend-mode:screen">
<path d="M78.144 14.1168C77.7452 13.5826 77.2107 12.9687 76.5167 12.3667C75.3282 11.3381 74.1436 10.7521 73.2781 10.4132C73.0148 8.9382 72.7476 7.45917 72.4844 5.98413C72.971 6.10373 75.8028 6.85321 77.3224 9.67971C78.3475 11.5813 78.2278 13.4072 78.144 14.1168Z" fill="#FDE3A7"/>
</g>
<path d="M65.2647 99.9644C64.2596 99.7053 62.7161 99.4461 60.8694 99.6694C58.0057 100.008 55.9835 101.312 55.0303 102.025C54.0092 99.9365 52.7808 96.7233 52.4816 92.6609C51.8993 84.7236 55.2536 78.7716 56.6536 76.567C55.9715 75.662 54.9704 74.6893 53.6104 74.4063C49.5062 73.5491 45.43 79.6208 44.5086 80.9921C38.482 89.966 42.4187 102.34 43.6511 105.833C44.1975 107.352 46.9616 114.551 54.6833 118.195C60.0717 120.739 65.0414 120.216 67.0516 119.889C71.6822 119.547 77.6011 118.53 83.9747 115.843C100.822 108.743 109.258 94.8655 112.201 89.3879C113.489 86.3342 116.082 79.0387 114.702 69.734C113.478 61.4976 109.748 55.7928 107.766 53.1577C105.544 50.7976 101.819 47.4249 96.3908 44.8018C89.6942 41.5646 83.5998 41.0225 80.1258 40.9746C78.9013 43.2111 77.6809 45.4436 76.4564 47.6801C75.8741 48.5173 74.9647 49.0156 74.155 48.8761C72.9625 48.6727 71.9335 47.0861 72.424 45.2841C71.2195 45.7386 69.5005 46.3047 67.3786 46.7034C64.1719 47.3093 61.1646 47.8754 58.2889 46.811C53.726 45.1247 51.8116 40.1813 51.325 38.786C49.9609 38.778 48.6008 38.766 47.2368 38.7581C47.0653 38.3913 45.8129 35.8279 42.8415 35.0425C40.2689 34.3608 38.2029 35.4851 37.7801 35.7282C37.3413 36.5814 36.8428 37.7534 36.5157 39.2085C36.1408 40.863 36.1209 42.3022 36.1847 43.3347C35.6981 44.1519 34.9522 45.1924 33.8554 46.2011C33.1614 46.8389 32.4794 47.3213 31.8851 47.6841C29.5917 48.1186 27.2944 48.5531 25.001 48.9877C25.2403 50.0561 25.8665 52.1172 27.6094 53.9909C28.5188 54.9676 29.4641 55.6094 30.202 56.0161C30.0624 57.8778 29.9786 62.4664 32.8064 66.8477C33.7198 68.2629 35.4029 70.7944 38.6934 72.1857C39.3316 72.4528 41.7087 73.3897 44.7918 72.995C48.6327 72.5047 51.1016 70.2642 52.6372 68.8689C54.5317 67.1507 55.7123 65.3766 56.3943 64.1806C58.4045 64.1647 60.7019 64.2923 63.2067 64.7029C64.3713 64.8942 65.4641 65.1255 66.4852 65.3846C64.2118 67.7486 61.9224 70.2562 59.6449 72.9073C58.9948 73.6608 58.3607 74.4142 57.7345 75.1637C56.5579 77.5198 55.3813 79.8759 54.2047 82.232C53.7978 82.8459 51.1734 86.9202 52.7967 90.1972C52.9682 90.544 53.1996 90.9068 53.5146 91.2656C54.0132 91.6124 55.5528 92.5852 57.5669 92.3659C59.8962 92.1108 61.9224 90.3567 62.7839 87.885C63.2824 89.7148 63.7531 91.6643 64.1838 93.7254C64.6345 95.906 64.9935 97.995 65.2727 99.9724L65.2647 99.9644Z" fill="#FFF1D7"/>
<path d="M40.7996 92.1386C41.9403 94.6542 44.4411 95.5432 44.5767 95.591C48.262 96.8389 51.6403 93.9127 51.8676 93.7094C51.7081 92.0908 51.6762 90.1294 51.9873 87.9368C52.777 82.3914 55.3296 78.4008 56.945 76.2879C56.3347 75.6341 55.198 74.6414 53.6106 74.4062C52.8727 74.2986 50.9024 74.187 47.584 77.1371C47.1891 77.4879 37.9598 85.8717 40.7996 92.1386Z" fill="#FF9944"/>
<path d="M35.4352 45.8304C33.7161 49.0795 36.4881 54.6567 40.4886 57.0208C41.3341 57.5191 42.7939 58.3842 44.6845 58.2167C47.4126 57.9776 49.1436 55.757 50.2763 54.3059C53.3754 50.3312 53.7942 45.7546 53.8181 43.4225C52.9845 41.8757 52.1549 40.3289 51.3213 38.7821C50.041 38.7781 48.7567 38.7701 47.4764 38.7661C47.3049 38.5349 44.0543 34.341 39.9501 35.0745C39.3359 35.1822 38.4744 35.4453 37.5291 36.111C37.4454 38.4233 37.1981 40.879 36.7234 43.4384C36.6556 43.8052 36.5839 44.168 36.5081 44.5268C36.185 44.7939 35.7582 45.2164 35.4312 45.8304H35.4352Z" fill="#FF9944"/>
<path d="M84.8001 41.7639C84.2536 43.6735 83.6354 46.9026 84.8001 50.2394C87.4923 57.9495 96.606 57.3755 98.9991 63.9294C101.364 70.4196 93.8739 74.9364 95.1262 83.1608C96.1194 89.6749 101.927 94.1439 106.35 96.795C108.599 94.1798 112.408 89.0171 114.115 81.5183C114.702 78.9509 117.546 66.4609 109.668 55.1111C101.005 42.629 86.5271 41.8277 84.8001 41.7639Z" fill="#FF9944"/>
<path d="M37.7598 44.5785C39.8299 42.1068 43.5112 42.342 44.5881 42.051C44.4047 41.3773 43.2919 39.9341 42.546 39.0092C40.7233 36.7568 38.047 36.4538 37.4089 36.402C36.9901 37.3428 36.1565 39.5992 36.8425 42.1865C37.03 42.8882 37.4807 44.0842 37.7559 44.5785H37.7598Z" fill="#EF7D6F"/>
<path opacity="0.3" d="M29.1691 55.9045C29.4363 55.0155 29.895 53.6242 30.6448 51.9976C32.1804 48.6529 33.5285 47.3413 33.1376 46.7672C32.8185 46.2928 31.3029 46.3207 25.5156 49.0675L29.1691 55.9045Z" fill="#B1431F"/>
<g opacity="0.2" style="mix-blend-mode:multiply">
<path d="M101.979 48.1107C102.445 48.302 110.813 51.9139 112.201 60.8598C113.13 66.8477 109.868 79.8361 97.2761 75.9252C91.5088 74.1352 90.9982 62.5741 82.6503 63.778C67.2229 66.0025 60.2271 81.9011 59.0146 87.7694C58.8949 88.3514 58.0733 89.3999 56.8369 89.8345C55.1059 90.4444 53.2751 89.3601 52.4934 88.8258C52.6091 89.2245 53.3749 91.7161 55.5286 92.4656C58.165 93.3865 60.6897 90.9308 61.4994 90.1454C63.6053 88.1003 64.1079 85.5608 64.2554 84.5084C64.4868 83.0851 65.4241 78.3809 69.5801 74.5658C74.1828 70.34 79.2242 71.524 80.4287 70.9938C81.8407 70.3719 84.1021 70.1925 85.1192 71.3605C87.7077 74.3226 83.6395 81.7377 81.4618 85.7043C79.4795 89.3202 74.8608 95.4835 69.2769 100.853C69.0097 101.109 69.2131 101.559 69.5801 101.519C71.8176 101.276 72.2404 101.726 72.2125 102.002C72.1128 103.022 68.6029 107.706 55.9195 103.094C50.5909 110.262 41.3735 92.1985 42.8413 84.624C41.892 86.8644 40.0414 92.0949 41.1701 98.5571C42.8812 108.328 50.1322 113.571 52.1504 114.986C58.1172 119.156 64.1916 119.786 67.0434 119.885C72.025 119.483 80.0458 118.171 88.6929 113.563C101.073 106.969 107.738 97.3452 110.542 92.6809C112.376 89.667 115.543 83.4758 115.543 75.2594C115.543 59.3808 103.717 49.5179 101.971 48.1067L101.979 48.1107Z" fill="#B1431F"/>
</g>
<g opacity="0.2" style="mix-blend-mode:multiply">
<path d="M33.6681 65.3926C34.741 66.4769 37.5808 69.0324 41.8325 69.5147C47.9827 70.2124 52.6413 66.0703 53.8139 64.9182C54.0851 64.6511 54.2885 64.4358 54.4161 64.3003C57.244 61.2944 58.3488 56.4267 58.7756 53.5205C58.8274 53.1657 59.326 53.1457 59.4057 53.4966C59.8844 55.5696 60.9493 58.4798 63.2905 60.0625C66.4813 62.2232 67.969 60.2259 71.439 59.2492C73.0623 58.7908 77.1904 60.3495 76.1175 60.6685C73.0503 61.5854 67.9092 66.1221 67.271 66.5567C65.3925 66.1102 63.0712 64.5833 61.1926 64.1408C59.7926 64.3601 58.3966 64.5753 56.9967 64.7946C55.9358 66.1381 54.3005 67.948 51.9792 69.6622C48.7525 72.0462 45.0392 74.789 41.0388 73.8362C35.8338 72.5924 33.8276 65.9667 33.6641 65.4006L33.6681 65.3926Z" fill="#B1431F"/>
</g>
<g opacity="0.2" style="mix-blend-mode:multiply">
<path d="M75.7143 48.7086C75.0602 49.7651 73.9155 50.3391 72.8107 50.1757C71.7458 50.0162 71.1276 49.2309 70.984 49.0355C70.0028 49.6136 65.795 51.9457 60.7655 50.6102C55.6204 49.2468 51.6757 44.5984 50.7305 38.782C51.2809 40.0497 53.2871 44.2556 58.0254 46.5359C65.3124 50.0441 72.38 45.7864 72.9224 45.4476C72.9503 45.7266 73.1497 47.3332 74.4819 48.2183C74.9326 48.5173 75.3793 48.6488 75.7183 48.7086H75.7143Z" fill="#B1431F"/>
</g>
<path d="M40.2207 37.6777C39.8019 38.1202 39.3353 38.7261 38.9843 39.5234C38.2424 41.1978 38.378 42.8483 38.6333 43.9805C38.7968 44.702 38.4458 45.4396 37.7718 45.7266C36.5872 46.2289 34.9719 47.1618 33.6078 48.8641C32.152 50.6819 31.6495 52.5477 31.458 53.5364C31.5298 52.2606 31.8808 49.2667 34.0386 46.4721C35.1593 45.025 36.4037 44.1001 37.3171 43.538C37.006 42.5852 36.3359 40.0895 37.4567 37.566C37.7119 36.988 38.0231 36.5016 38.3381 36.095C38.9643 36.6212 39.5945 37.1434 40.2207 37.6697V37.6777Z" fill="#FDE3A7"/>
<path d="M119.424 59.3089C118.742 55.4778 117.482 51.7902 115.675 48.3458C115.679 48.278 115.683 48.2023 115.687 48.1265C115.695 48.0946 115.707 48.0627 115.711 48.0269C115.723 47.9272 115.719 47.8275 115.711 47.7319C115.866 44.0642 115.499 33.8066 107.507 26.6746C103.474 23.0747 98.9791 21.6076 95.7644 21.0097C94.4203 19.2835 89.3629 13.471 82.6343 14.1527C81.9443 14.2205 80.5723 14.364 79.0527 15.0018C79.1963 14.6271 79.3119 14.2444 79.3837 13.8417C79.6669 12.283 79.1803 10.6564 78.0795 9.49634C75.4072 6.66984 70.1663 2.91047 63.7449 0.965009C63.1865 0.781626 62.6281 0.630135 62.0657 0.502563C62.0059 0.486617 61.9461 0.47067 61.8862 0.454724C61.8583 0.446751 61.8304 0.446751 61.8025 0.442764C57.9097 -0.374489 53.8654 0.0560637 49.845 0.793585C49.3145 0.889264 48.7841 0.992915 48.2536 1.10454C47.8029 1.18427 47.3522 1.26799 46.9095 1.36766C45.9881 1.57097 45.1027 1.81814 44.2492 2.09322C38.0949 3.83138 32.2119 6.55423 26.8953 10.1342C-2.3084 29.7124 -8.89339 70.8741 12.8957 98.6647C19.716 107.479 29.0291 114.264 39.3713 118.239C49.7732 122.194 61.2281 122.652 72.0848 120.711C72.0928 120.711 72.0968 120.707 72.1047 120.703C74.3423 120.332 76.4602 119.774 77.4014 119.463C90.6153 115.145 101.3 107.858 108.3 98.3856C114.686 89.7467 117.617 79.7483 116.552 70.2283C116.524 69.993 116.489 69.7618 116.457 69.5306C116.931 70.1047 117.354 70.6189 117.633 70.9658C117.865 71.2528 118.208 71.4123 118.559 71.4123C118.67 71.4123 118.782 71.3963 118.894 71.3644C119.356 71.2289 119.691 70.8262 119.747 70.3439C120.174 66.6642 120.062 62.9527 119.416 59.3129L119.424 59.3089ZM76.3485 11.1627C76.9268 11.7767 77.1781 12.5899 77.0305 13.4032C76.9109 14.061 76.5798 14.7347 76.169 15.4802C75.822 13.1082 74.9565 10.8279 73.7001 8.79071C74.7571 9.61195 75.6505 10.4252 76.3525 11.1667L76.3485 11.1627ZM33.1014 11.8843C35.6021 9.31296 39.6544 6.0559 45.2463 4.30977C46.2673 4.02672 47.2964 3.77158 48.3294 3.54833C49.9886 3.23737 51.6797 3.07392 53.3868 3.07392C53.666 3.07392 53.9412 3.07791 54.2204 3.08588C55.0779 3.1098 55.8676 3.5563 56.3422 4.27788L57.0203 5.31041L53.9452 6.52632C53.7218 6.61403 53.5304 6.7695 53.3948 6.96883C51.3367 10.0106 49.9726 13.2039 49.3385 16.4649C49.0314 18.0436 48.9277 19.4549 48.824 20.8183C48.6485 23.1584 48.4849 25.367 47.2764 28.0819C47.0411 28.6121 46.7779 29.1343 46.4907 29.6367C46.1277 30.2745 45.3101 30.5177 44.664 30.1749C41.0544 28.2613 36.2243 24.7212 33.7116 18.7014C33.1014 17.2423 32.6586 15.6955 32.3914 14.1128C32.2558 13.2996 32.515 12.4863 33.1014 11.8843ZM40.2168 115.975C4.83896 102.611 -8.87744 58.99 12.6883 27.5955C17.5263 20.4196 24.0236 14.4676 31.4501 10.1382C31.4342 10.1541 31.4142 10.1741 31.3983 10.19C30.2815 11.3382 29.775 12.9527 30.0342 14.5155C30.3294 16.2855 30.8279 18.0077 31.5099 19.6422C34.3019 26.3198 39.6026 30.2227 43.5552 32.3157C44.1175 32.6147 44.7158 32.7542 45.3101 32.7542C46.6143 32.7542 47.8747 32.0645 48.5727 30.8366C48.8957 30.2665 49.1949 29.6725 49.4621 29.0746C50.8461 25.973 51.0336 23.4455 51.217 21.0017C51.3128 19.706 51.4125 18.3665 51.6917 16.9314C52.2421 14.1049 53.4107 11.3182 55.1696 8.63922L59.2778 7.01667C59.6128 6.88512 59.8721 6.60207 59.9837 6.25523C60.0954 5.9084 60.0396 5.52967 59.8401 5.2227L58.3485 2.94236C58.2128 2.73905 58.0653 2.55168 57.9057 2.37228C59.0664 2.3962 60.2151 2.5437 61.3358 2.80283C61.3398 2.80283 61.3438 2.80283 61.3478 2.80682C61.6908 2.88655 62.0258 2.97824 62.3609 3.06994C68.2678 4.83201 73.1497 9.76344 73.8517 16.2178C74.0312 17.8682 73.9235 19.5585 73.5645 21.1851C73.2335 21.2728 72.8984 21.4322 72.5834 21.7233C71.7896 22.4488 71.5384 23.577 71.4666 24.3385C71.4426 24.5697 71.7218 24.6973 71.8814 24.5298C72.1686 24.2348 72.5834 23.9318 73.1417 23.8082C73.1896 25.2952 73.7759 26.7703 74.8488 27.8068C75.0642 28.0261 75.6704 28.6081 76.3365 29.246L79.2601 32.0924C79.4196 32.2718 79.5712 32.4552 79.6829 32.6585C80.6959 34.2053 80.0179 36.0272 79.5552 37.6457C78.6179 40.6875 77.7843 44.0482 75.8619 46.5718C75.6904 46.7671 75.5149 46.9186 75.3793 46.9943C75.2397 47.0741 75.1878 47.0701 75.1559 47.0701C75.12 47.0701 75.0123 47.0302 74.8608 46.9066C74.2585 46.3645 73.8836 45.5671 73.5127 44.7698C73.2095 44.112 72.376 43.8688 71.7777 44.2715C67.6376 47.0302 61.8862 47.2575 57.7223 44.4668C53.4506 41.6802 51.1612 36.5614 51.5002 31.4266C51.5481 30.6493 50.4313 30.4738 50.2439 31.2313C49.7333 33.4638 49.7533 35.6445 50.204 37.6657C49.5618 37.7414 48.8678 37.857 48.3693 37.9487C47.1568 36.673 43.7825 33.7867 38.4379 34.1814C37.5405 34.2492 36.7548 34.8392 36.4277 35.6804C35.9491 36.9282 34.8643 39.7586 35.5543 43.2549C34.5412 43.9526 33.5879 44.7419 32.7464 45.6429C32.7384 45.6429 32.7344 45.6429 32.7264 45.6469C32.3675 45.7824 31.1909 46.1013 30.0542 46.4083C26.3967 47.393 25.26 47.7398 24.7694 48.1425C24.0595 48.7285 23.7843 49.6773 24.0714 50.5584C24.3905 51.5311 24.8452 52.448 25.4275 53.2812C26.3329 54.5808 27.5494 55.6732 28.9454 56.4426C28.9693 56.4545 28.9972 56.4625 29.0251 56.4745C29.1089 59.3807 29.8268 62.2909 30.9236 64.958C31.6336 66.6642 32.5908 68.3625 33.7754 69.8416C32.5031 70.7146 31.2866 71.6794 30.1379 72.7239C25.7546 76.559 23.0504 82.5748 23.5928 88.447C23.6287 88.8856 24.2828 88.8776 24.3187 88.447C24.5062 86.6052 24.9409 84.8272 25.615 83.1568C26.628 80.6532 28.1596 78.4446 29.9544 76.4633C31.5339 74.5816 33.3965 72.983 35.4386 71.6236C37.6163 73.6129 40.3444 74.8487 43.5392 74.5218C47.7191 74.1431 51.5162 71.8827 54.4118 68.9167C55.3531 67.92 56.1747 66.8038 56.8568 65.6118C59.3336 65.4483 61.978 65.6476 64.6104 66.1938C64.1796 66.5367 63.7489 66.8875 63.3221 67.2503C60.8093 69.415 58.5838 71.8947 56.6573 74.5976C55.7679 73.7006 54.8745 73.4375 53.8654 73.2302C48.9117 72.2096 43.9859 79.0626 42.0754 82.8259C38.6812 89.5075 38.7411 98.4414 42.227 105.589C45.5534 112.411 50.3436 116.999 56.5337 119.323C50.9698 119.028 45.4617 117.972 40.2288 115.983L40.2168 115.975ZM30.5407 48.7684C30.5407 48.7684 30.5288 48.7883 30.5248 48.7963C29.7789 50.371 29.3322 52.0175 29.1288 53.6958C28.4508 53.1855 27.8525 52.5756 27.3699 51.8819C26.9631 51.2959 26.632 50.654 26.3927 49.9763C27.1346 49.6853 29.1887 49.1312 30.5368 48.7684H30.5407ZM106.39 96.9385C99.6851 106.008 89.4108 113.001 76.6715 117.159C75.4511 117.557 71.8255 118.482 68.9977 118.626C57.5069 119.208 49.2148 114.464 44.3608 104.509C41.198 98.0268 41.1302 89.942 44.1893 83.9183C46.1397 80.0752 50.2837 74.9524 53.3708 75.5863C54.1765 75.7537 54.6511 75.8534 55.2534 76.6387C54.9463 77.1251 54.6511 77.6154 54.364 78.1098C52.8563 80.8406 51.1173 83.9143 50.9219 87.0836C50.6946 88.4949 50.5629 89.9261 50.5589 91.3732C50.4034 102.599 59.0624 110.489 70.1225 108.831C77.4493 107.894 83.4998 102.36 86.8063 95.9259C86.9738 95.6269 86.5311 95.3558 86.3396 95.6149C84.836 97.4089 83.2645 99.0952 81.5415 100.578C76.6157 104.74 69.7436 107.85 63.3101 106.12C62.313 105.845 61.3996 105.49 60.5581 105.071C60.8652 103.955 62.0418 103.197 63.2822 103.245C61.9182 102.308 59.9159 102.536 58.6157 103.712C58.5718 103.74 58.5359 103.772 58.496 103.803C57.818 103.297 57.2117 102.731 56.6653 102.121C56.765 102.089 56.8647 102.049 56.9684 101.99C59.3974 100.451 62.66 100.51 65.0371 102.129C65.9864 102.771 67.2428 101.75 66.812 100.674C66.2297 99.167 65.7112 97.6282 65.3722 96.0495C64.3392 91.3772 64.5426 86.3541 66.4411 81.9369C67.3983 79.7841 68.7265 77.8028 70.4495 76.2121C72.2204 74.6494 74.2824 73.4255 76.4203 72.4209C77.8681 71.7671 79.3877 71.2528 80.9592 70.902C81.3301 70.8183 81.6013 70.4714 81.5734 70.0768C81.5455 69.6382 81.1745 69.3074 80.7398 69.3353C79.0088 69.4469 77.2858 69.8136 75.6306 70.3837C72.2962 71.5 69.596 73.3936 67.518 75.7856C67.51 75.7936 67.502 75.7975 67.494 75.8055C64.4429 78.6918 62.7278 82.3196 61.2441 86.0949C60.9051 86.9839 60.5661 87.9567 60.2589 88.8616C59.9797 89.7267 59.4094 90.4204 58.6635 90.847C58.8071 89.6709 58.6755 88.4749 58.2767 87.3826C58.2886 88.8656 57.8379 90.2609 57.0642 91.3254C56.2066 91.3852 55.3372 91.134 54.6551 90.6436C54.5714 89.3958 54.8745 88.0444 55.5884 86.8404C54.7748 87.4663 54.0688 88.3075 53.5583 89.3002C53.4626 89.0729 53.3868 88.8337 53.3469 88.5786C53.2751 88.0843 53.2751 87.558 53.3309 87.0039C53.4666 86.2345 53.6381 85.469 53.8415 84.7116C55.1138 80.7888 58.2926 76.3397 60.2629 73.8521C63.0429 70.312 66.3414 67.2383 69.8672 64.4557C70.1982 64.2005 70.294 63.7261 70.0706 63.3593C69.8313 62.9686 69.3288 62.8491 68.9419 63.0882C68.2997 63.4869 67.6815 63.9055 67.0673 64.3321C66.9755 64.2763 66.8758 64.2324 66.7681 64.2045C63.8366 63.4351 60.8333 63.0763 57.9895 63.1281C58.6277 61.4179 59.1462 59.7036 59.1262 57.818C59.1222 57.6346 58.9986 57.4671 58.8111 57.4153C58.5838 57.3515 58.3485 57.4871 58.2886 57.7183C56.1548 64.8304 48.0741 74.175 39.9935 71.7033C37.4009 70.6987 35.3828 68.4662 33.9549 65.8111C33.9988 65.7074 34.0347 65.5958 34.0466 65.4762C34.1384 65.1772 34.266 64.8942 34.4255 64.6311C35.1833 63.3633 36.4916 62.8451 37.2254 62.6457C37.6044 62.5979 37.9194 62.3507 38.0152 62.0198C38.083 61.7926 38.0431 61.5375 37.9075 61.3182C37.7519 61.067 37.4927 60.8956 37.1856 60.8438C36.8625 60.7959 34.1025 60.481 32.7344 63.0763C31.9726 60.9833 31.5259 58.8027 31.4142 56.8532C31.0991 51.5311 33.1173 47.4807 37.4807 44.8416C38.087 44.427 38.1867 43.8449 37.9992 43.3705C37.9912 43.3267 37.9912 43.2868 37.9793 43.2429C37.3371 40.6756 37.9274 38.4989 38.402 37.1674C39.5547 37.5461 40.6316 38.16 41.537 38.9733C42.1113 39.4876 42.6139 40.0855 43.0407 40.7354C42.2629 40.7473 41.4732 40.8071 40.6994 40.9985C40.4043 41.0902 40.157 41.146 39.8658 41.4171C39.4789 41.7599 39.5148 42.3898 39.79 42.7526C39.467 42.916 39.1519 43.0914 38.8527 43.2908C38.5696 43.4662 38.749 43.9246 39.0761 43.8529C39.5108 43.7652 39.9376 43.6855 40.3684 43.6695C41.0584 43.5379 42.0435 44.0442 42.4105 43.219C42.5301 42.92 42.4543 42.5931 42.239 42.3778C42.9489 42.322 43.6748 42.346 44.4007 42.3539C44.9791 42.3858 45.4098 41.728 45.1466 41.2018C44.5323 39.9022 43.6629 38.7221 42.59 37.7614C42.1512 37.3667 41.6726 37.0159 41.174 36.7049C44.8634 37.3547 46.8457 39.8583 46.9414 39.9859C47.2166 40.3527 47.6713 40.5241 48.122 40.4404C48.8599 40.2929 50.1362 40.0776 50.9139 40.0098C53.1076 45.308 58.4202 49.0355 64.7699 48.868C67.2547 48.8202 69.7116 48.1544 71.8973 46.9744C73.1816 49.2069 75.3274 50.6979 77.6168 48.1863C79.1045 46.3126 79.9979 44.128 80.7278 41.8915C97.5114 43.6615 109.465 52.46 113.158 65.4244C113.158 65.4284 113.158 65.4324 113.162 65.4403C113.625 67.0669 113.964 68.7532 114.159 70.5033C115.156 79.4094 112.388 88.7979 106.37 96.9425L106.39 96.9385ZM63.0469 96.5837C63.2104 97.3531 63.4178 98.1106 63.6492 98.86C61.0128 98.1026 58.0653 98.4534 55.724 99.9404C55.5485 100.056 55.4209 100.188 55.3292 100.335C53.8973 98.0308 53.1515 95.288 52.9959 92.4017C55.054 94.0522 58.2208 94.2794 60.4743 92.5612C61.2959 91.9313 61.8862 91.138 62.317 90.229C62.3369 90.1812 62.3529 90.1334 62.3688 90.0855C62.325 92.2503 62.5483 94.4429 63.0469 96.5837ZM81.4777 39.5354C81.6013 39.1248 81.725 38.7142 81.8526 38.3075C82.04 37.6378 82.2195 36.972 82.395 36.3023C82.4828 35.9833 82.5386 35.6524 82.5705 35.3216L84.3175 37.0199C84.5249 37.5301 85.0354 38.7779 85.6377 40.1613C84.2856 39.9062 82.8976 39.7028 81.4777 39.5394V39.5354ZM117.597 67.1267C116.696 66.0383 115.787 64.95 115.412 64.5035C111.982 52.751 102.298 44.2316 88.5612 40.8031C87.5083 38.5427 86.4513 35.8996 86.4433 35.8717C86.3795 35.7122 86.2838 35.5687 86.1641 35.4531L80.9432 30.3742C80.6999 30.1111 80.4407 29.8599 80.1894 29.6207C80.1894 29.6207 78.8772 28.357 78.0037 27.5158L77.9917 27.5038C77.565 27.0892 77.2419 26.7823 77.2419 26.7823C76.8989 26.4434 76.2926 25.9172 76.0493 25.4986C75.5707 24.7531 75.4152 23.8122 75.5907 22.9432C75.6824 22.5844 75.7701 22.2256 75.8539 21.8628C76.1451 20.914 76.6755 19.7977 77.6368 18.813C79.5034 16.8995 81.8646 16.6603 82.8697 16.5606C89.0877 15.9307 93.9217 22.5525 94.1252 22.8315C94.3086 23.0907 94.5878 23.2621 94.8989 23.3139C97.8225 23.8003 102.11 25.0879 105.915 28.4885C106.182 28.7277 106.434 28.9709 106.685 29.2141C106.725 29.3815 106.757 29.541 106.765 29.6925C106.023 29.4453 105.301 28.7955 104.703 28.2613C104.041 27.6394 103.007 28.4726 103.478 29.2659C103.821 29.7563 103.973 30.3742 103.865 30.9722C103.682 32.1562 102.489 32.9974 101.328 32.7661C100.758 32.6665 100.236 32.3356 99.9085 31.8572C99.7888 31.7097 99.6213 31.6021 99.4219 31.5662C98.9353 31.4745 98.5005 31.8413 98.4566 32.3276C98.337 32.818 98.3729 33.1648 97.8863 33.2724C97.3758 33.3761 96.7974 33.1608 96.3308 32.8339C96.1912 32.7343 96.0037 32.7422 95.8681 32.8499C95.7046 32.9814 95.6687 33.2206 95.7884 33.392C95.9758 33.6631 96.2111 33.9143 96.4943 34.1216C97.6111 34.9947 99.035 34.7714 99.6971 33.8226C101.827 35.1661 104.966 34.0498 105.436 31.2472C105.46 31.1197 105.476 30.9961 105.484 30.8685C106.705 31.5662 107.678 31.4745 108.113 30.7689C109.01 31.8612 109.752 32.9974 110.374 34.1455C110.382 34.2013 110.386 34.2571 110.39 34.305C109.987 34.1216 109.505 33.715 109.194 33.4279C108.982 33.2286 108.651 33.1967 108.404 33.3721C108.121 33.5754 108.053 33.9701 108.252 34.2571C108.679 34.8432 108.52 35.7641 107.921 36.1667C107.339 36.5973 106.43 36.4378 106.031 35.8358C105.947 35.7322 105.831 35.6524 105.696 35.6166C105.297 35.5089 104.938 35.8079 104.886 36.2026C104.842 36.37 104.79 36.5255 104.766 36.5614C104.75 36.6292 104.699 36.6611 104.603 36.693C104.24 36.7886 103.793 36.6252 103.442 36.4019L103.059 36.7089C103.175 36.9959 103.37 37.263 103.63 37.4783C104.388 38.1122 105.373 37.9687 105.859 37.3388C106.119 37.4863 106.402 37.5939 106.693 37.6418C108.244 37.9447 109.521 36.7607 109.728 35.3853C110.259 35.6445 110.733 35.7162 111.084 35.5647C112.991 39.7826 113.346 43.9805 113.346 46.496C112.185 46.3326 111.032 46.1412 109.896 45.8661C106.789 45.1645 103.737 44.0761 100.933 42.5533C98.1974 41.0702 95.573 39.1328 93.7263 36.6212C90.5196 31.9808 91.4967 28.5244 96.7855 26.6627C97.0726 26.567 97.2641 26.276 97.2083 25.961C96.9809 25.0441 95.8482 25.658 95.222 25.7138C89.6301 27.1092 87.9949 32.1961 91.0221 36.9561C94.2608 41.9712 99.6293 45.0529 105.078 47.0063C107.754 47.9272 110.518 48.5571 113.318 48.9398C113.342 49.0235 113.37 49.1032 113.413 49.179C115.188 52.4879 116.421 56.0399 117.079 59.7355C117.514 62.1753 117.689 64.651 117.609 67.1267H117.597Z" fill="#553525"/>
<path d="M84.4972 23.2581C84.4334 22.1658 84.0106 21.1612 83.3006 20.4277C82.5588 19.6622 81.5936 19.2117 80.5765 19.1599C78.3469 19.0363 76.3487 20.926 76.2171 23.2621C76.1572 24.3146 76.5362 25.3431 77.3059 26.2441C77.7327 26.7384 78.2711 27.1291 78.9093 27.4042C80.058 27.8985 81.7611 28.6201 82.9177 29.1105C83.1092 29.1902 83.3126 29.2301 83.516 29.2301C83.859 29.2301 84.198 29.1145 84.4732 28.8952C84.912 28.5404 85.1273 27.9743 85.0356 27.4122C84.8282 26.1843 84.569 24.4701 84.4972 23.2542V23.2581ZM79.5355 25.9212C79.1207 25.7418 78.7777 25.4986 78.5144 25.1877C78.0119 24.6016 77.7766 23.9837 77.8125 23.3498C77.8803 22.102 78.9452 20.7665 80.381 20.7665C80.4209 20.7665 80.4568 20.7665 80.4967 20.7665C81.1109 20.7984 81.7012 21.0775 82.1599 21.5519C82.5986 22.0063 82.8659 22.6442 82.9058 23.3498C82.9776 24.6016 83.2368 26.3238 83.4482 27.5836C82.2955 27.0972 80.6523 26.3996 79.5355 25.9172V25.9212Z" fill="#553525"/>
<path d="M42.5939 56.2752L42.6338 56.335C42.7135 56.4626 42.9449 56.7576 43.3238 56.7815C43.3397 56.7815 43.3557 56.7815 43.3716 56.7815C43.8423 56.7815 44.2531 56.3549 44.3209 55.8008C44.4126 55.5018 44.5403 55.2148 44.6958 54.9517C45.4496 53.6799 46.7539 53.1577 47.4878 52.9544C47.8667 52.9065 48.1778 52.6554 48.2735 52.3245C48.3373 52.0973 48.2974 51.8421 48.1618 51.6229C48.0063 51.3757 47.747 51.2043 47.4399 51.1524C46.2075 50.977 43.8503 51.3278 42.8133 53.7796C42.3586 54.856 42.4942 55.8287 42.5739 56.1955L42.5899 56.2672L42.5939 56.2752Z" fill="#553525"/>
<path d="M47.8507 59.6797C47.8387 61.6052 46.1915 63.5068 44.2331 63.1121C43.7864 63.0762 43.3956 63.4151 43.3637 63.8696C42.9887 65.1692 43.3357 66.6762 41.4452 66.2336L41.2617 66.4808C41.6606 67.015 42.4104 67.3937 43.1243 67.2422C43.5032 67.5731 44.0457 67.7685 44.4844 67.7087C45.0827 67.6289 45.5214 67.3459 45.9043 66.9233C45.9243 66.8994 45.9602 66.8595 45.9881 66.8117L45.7488 66.6363C45.7488 66.6363 45.669 66.6562 45.6171 66.6642C45.2103 66.7599 44.5522 66.8117 44.3368 66.4051C44.6799 65.9386 44.8793 65.3526 44.9431 64.7745C46.7818 64.7068 48.5567 63.4829 48.6085 61.4816C48.6524 60.7999 48.4889 60.1381 48.1778 59.5959L47.8467 59.6876L47.8507 59.6797Z" fill="#553525"/>
<path d="M41.9442 63.2836C42.4747 63.2836 43.0331 63.1361 43.3681 62.7574C43.743 62.3388 43.6712 61.4618 43.6433 61.2066C43.5715 60.5807 43.3641 60.1462 43.0291 59.911C42.5864 59.604 41.9442 59.6917 41.306 60.1502C40.6759 60.6046 40.0257 61.4578 40.277 62.3707C40.3887 62.7773 40.7596 63.0763 41.318 63.2079C41.5095 63.2517 41.7248 63.2796 41.9442 63.2796V63.2836Z" fill="#553525"/>
<path d="M57.8579 22.5844C58.2527 22.7 58.6276 22.6442 58.8949 22.5645C59.3495 22.429 59.8122 22.3333 60.2709 22.3532C60.6458 22.3692 61.0726 22.4409 61.5193 22.6084C62.4087 22.9472 62.987 23.5412 63.338 24.0236C63.4776 24.215 63.7768 24.1273 63.7808 23.8881C63.7887 23.0788 63.6292 21.815 62.7517 20.7865C61.5552 19.3832 59.8601 19.3991 59.4134 19.4031C58.8949 19.4071 58.4282 19.4988 58.0493 19.6064C57.5228 19.7579 57.0322 20.1327 56.8288 20.6749C56.7371 20.918 56.7012 21.1732 56.7331 21.4164C56.8368 22.2815 57.7063 22.5326 57.8698 22.5805L57.8579 22.5844Z" fill="#553525"/>
<path d="M86.443 17.6569C86.2875 17.5772 86.112 17.5653 85.9644 17.629C85.745 17.7207 85.6014 17.9559 85.5895 18.231C85.5376 18.5978 85.3781 19.2436 84.9194 19.6263C84.8356 19.6981 84.7439 19.7539 84.6442 19.8017C84.3012 19.8894 84.0699 20.2203 84.1137 20.5632C84.1377 20.7505 84.2453 20.922 84.4129 21.0376L84.4807 21.0854L84.5604 21.1014C84.6282 21.1173 84.7399 21.1333 84.8795 21.1333C85.1188 21.1333 85.4419 21.0854 85.7729 20.8861C87.145 20.0609 86.8498 18.3666 86.8099 18.1672C86.7621 17.94 86.6265 17.7566 86.439 17.6569H86.443Z" fill="#553525"/>
</svg>
