<svg width="17" height="16" viewBox="0 0 17 16" fill="none" xmlns="http://www.w3.org/2000/svg">
<path d="M3.56365 12.9351H4.55498L10.6623 6.81904L9.67097 5.82629L3.56365 11.9423V12.9351ZM13.6894 5.79084L10.68 2.81259L11.6713 1.81985C11.9428 1.54802 12.2763 1.41211 12.6719 1.41211C13.067 1.41211 13.4003 1.54802 13.6717 1.81985L14.663 2.81259C14.9345 3.08442 15.0761 3.4125 15.0879 3.79683C15.0997 4.18069 14.9699 4.50854 14.6984 4.78036L13.6894 5.79084ZM2.85556 14.3533C2.65493 14.3533 2.48687 14.2852 2.35139 14.1491C2.21544 14.0134 2.14746 13.8451 2.14746 13.6442V11.641C2.14746 11.5464 2.16516 11.4549 2.20057 11.3665C2.23597 11.2777 2.28908 11.1978 2.35989 11.1269L9.65327 3.82307L12.6627 6.83677L5.36929 14.1406C5.29848 14.2115 5.21894 14.2646 5.13067 14.3001C5.04192 14.3356 4.95034 14.3533 4.85592 14.3533H2.85556ZM10.1666 6.32267L9.67097 5.82629L10.6623 6.81904L10.1666 6.32267Z" fill="#553525"/>
</svg>
