<svg width="10" height="14" viewBox="0 0 10 14" fill="none" xmlns="http://www.w3.org/2000/svg">
<path d="M7.58823 0H2.41176C1.33764 0 0.470581 0.852727 0.470581 1.90909V12.0909C0.470581 13.1473 1.33764 14 2.41176 14H7.58823C8.66234 14 9.5294 13.1473 9.5294 12.0909V1.90909C9.5294 0.852727 8.66234 0 7.58823 0ZM5.97058 12.7273H4.0294C3.84823 12.7273 3.70587 12.5873 3.70587 12.4091C3.70587 12.2309 3.84823 12.0909 4.0294 12.0909H5.97058C6.15176 12.0909 6.29411 12.2309 6.29411 12.4091C6.29411 12.5873 6.15176 12.7273 5.97058 12.7273ZM8.23529 10.8182H1.7647V1.90909H8.23529V10.8182Z" fill="#FF9944"/>
</svg>
