<svg width="24" height="24" viewBox="0 0 24 24" fill="none" xmlns="http://www.w3.org/2000/svg">
<path d="M4.42785 21.4492C3.91139 21.4492 3.46911 21.2654 3.10101 20.8977C2.73354 20.5307 2.5498 20.0893 2.5498 19.5735V6.44313C2.5498 5.92729 2.73354 5.48555 3.10101 5.1179C3.46911 4.75088 3.91139 4.56737 4.42785 4.56737H12.8086L10.9306 6.44313H4.42785V19.5735H17.5742V13.0552L19.4522 11.1794V19.5735C19.4522 20.0893 19.2685 20.5307 18.901 20.8977C18.5329 21.2654 18.0907 21.4492 17.5742 21.4492H4.42785ZM14.9215 5.10665L16.2596 6.41968L10.062 12.6097V13.9462H11.3766L17.5977 7.73271L18.9358 9.04575L12.7147 15.2592C12.5426 15.4311 12.3432 15.5681 12.1166 15.67C11.8893 15.7713 11.6505 15.8219 11.4001 15.8219H9.12298C8.85692 15.8219 8.63406 15.7322 8.45439 15.5528C8.2741 15.3727 8.18395 15.1498 8.18395 14.8841V12.6097C8.18395 12.3596 8.2309 12.1211 8.3248 11.8941C8.41871 11.6677 8.55174 11.4686 8.72389 11.2967L14.9215 5.10665ZM18.9358 9.04575L14.9215 5.10665L17.269 2.76195C17.6446 2.38679 18.0947 2.19922 18.6193 2.19922C19.1433 2.19922 19.5853 2.38679 19.9452 2.76195L21.2599 4.09843C21.6198 4.45795 21.7998 4.89563 21.7998 5.41146C21.7998 5.92729 21.6198 6.36497 21.2599 6.72449L18.9358 9.04575Z" fill="#553525"/>
</svg>
